<svg width="16" height="16" viewBox="0 0 16 16" fill="none" xmlns="http://www.w3.org/2000/svg">
<path d="M13.9901 8.324C13.9276 9.48143 13.5312 10.596 12.8488 11.5329C12.1664 12.4699 11.2272 13.1891 10.1447 13.6037C9.0623 14.0183 7.88294 14.1104 6.74924 13.869C5.61554 13.6276 4.57603 13.063 3.75636 12.2434C2.9367 11.4239 2.37198 10.3844 2.13047 9.25074C1.88895 8.11706 1.98099 6.9377 2.39544 5.85521C2.8099 4.77273 3.52903 3.83346 4.46591 3.15096C5.40279 2.46846 6.5173 2.07194 7.67472 2.00933C7.94472 1.99467 8.08606 2.316 7.94272 2.54467C7.46332 3.3117 7.25804 4.21858 7.36039 5.1173C7.46274 6.01602 7.86667 6.85352 8.50627 7.49312C9.14587 8.13272 9.98337 8.53665 10.8821 8.639C11.7808 8.74135 12.6877 8.53607 13.4547 8.05667C13.6841 7.91333 14.0047 8.054 13.9901 8.324Z" stroke="#717182" stroke-width="1.33333" stroke-linecap="round" stroke-linejoin="round"/>
</svg>
