<svg width="40" height="40" viewBox="0 0 40 40" fill="none" xmlns="http://www.w3.org/2000/svg">
<g clip-path="url(#clip0_1_2183)">
<path d="M40 0H0V40H40V0Z" fill="white" fill-opacity="0.01"/>
<g opacity="0.9">
<path d="M0 20C0 8.95431 8.95431 0 20 0C31.0457 0 40 8.95431 40 20C40 31.0457 31.0457 40 20 40C8.95431 40 0 31.0457 0 20Z" fill="url(#paint0_linear_1_2183)"/>
<path d="M0 20C0 8.95431 8.95431 0 20 0C31.0457 0 40 8.95431 40 20C40 31.0457 31.0457 40 20 40C8.95431 40 0 31.0457 0 20Z" fill="url(#paint1_radial_1_2183)"/>
</g>
</g>
<defs>
<linearGradient id="paint0_linear_1_2183" x1="0" y1="0" x2="40" y2="40" gradientUnits="userSpaceOnUse">
<stop stop-color="#E879F9"/>
<stop offset="0.3" stop-color="#A855F7"/>
<stop offset="0.6" stop-color="#D946EF"/>
<stop offset="1" stop-color="#A855F7"/>
</linearGradient>
<radialGradient id="paint1_radial_1_2183" cx="0" cy="0" r="1" gradientUnits="userSpaceOnUse" gradientTransform="translate(12 12) rotate(-90) scale(39.598)">
<stop stop-color="white" stop-opacity="0.4"/>
<stop offset="0.5" stop-opacity="0"/>
</radialGradient>
<clipPath id="clip0_1_2183">
<rect width="40" height="40" fill="white"/>
</clipPath>
</defs>
</svg>
