<svg width="289" height="287" viewBox="0 0 289 287" fill="none" xmlns="http://www.w3.org/2000/svg">
<g opacity="0.9" filter="url(#filter0_dddii_1_2125)">
<path d="M108 146C108 123.909 125.909 106 148 106C170.091 106 188 123.909 188 146C188 168.091 170.091 186 148 186C125.909 186 108 168.091 108 146Z" fill="url(#paint0_linear_1_2125)" shape-rendering="crispEdges"/>
<path d="M108 146C108 123.909 125.909 106 148 106C170.091 106 188 123.909 188 146C188 168.091 170.091 186 148 186C125.909 186 108 168.091 108 146Z" fill="url(#paint1_radial_1_2125)" shape-rendering="crispEdges"/>
<g filter="url(#filter1_d_1_2125)">
<path d="M100 138C100 135.791 101.791 134 104 134C106.209 134 108 135.791 108 138C108 140.209 106.209 142 104 142C101.791 142 100 140.209 100 138Z" fill="white"/>
</g>
<g filter="url(#filter2_d_1_2125)">
<path d="M183 141C183 139.343 184.343 138 186 138C187.657 138 189 139.343 189 141C189 142.657 187.657 144 186 144C184.343 144 183 142.657 183 141Z" fill="#E9D4FF"/>
</g>
<g filter="url(#filter3_d_1_2125)">
<path d="M171 104C171 101.791 172.791 100 175 100C177.209 100 179 101.791 179 104C179 106.209 177.209 108 175 108C172.791 108 171 106.209 171 104Z" fill="#FCCEE8"/>
</g>
<g filter="url(#filter4_d_1_2125)">
<path d="M107 163C107 161.895 107.895 161 109 161C110.105 161 111 161.895 111 163C111 164.105 110.105 165 109 165C107.895 165 107 164.105 107 163Z" fill="white"/>
</g>
<g filter="url(#filter5_d_1_2125)">
<path d="M109 177C109 175.343 110.343 174 112 174C113.657 174 115 175.343 115 177C115 178.657 113.657 180 112 180C110.343 180 109 178.657 109 177Z" fill="#DAB2FF"/>
</g>
<g filter="url(#filter6_d_1_2125)">
<path d="M140 185C140 183.895 140.895 183 142 183C143.105 183 144 183.895 144 185C144 186.105 143.105 187 142 187C140.895 187 140 186.105 140 185Z" fill="#FDA5D5"/>
</g>
</g>
<defs>
<filter id="filter0_dddii_1_2125" x="0" y="0" width="289" height="287" filterUnits="userSpaceOnUse" color-interpolation-filters="sRGB">
<feFlood flood-opacity="0" result="BackgroundImageFix"/>
<feColorMatrix in="SourceAlpha" type="matrix" values="0 0 0 0 0 0 0 0 0 0 0 0 0 0 0 0 0 0 127 0" result="hardAlpha"/>
<feOffset/>
<feGaussianBlur stdDeviation="50"/>
<feComposite in2="hardAlpha" operator="out"/>
<feColorMatrix type="matrix" values="0 0 0 0 0.658824 0 0 0 0 0.333333 0 0 0 0 0.968627 0 0 0 0.2 0"/>
<feBlend mode="normal" in2="BackgroundImageFix" result="effect1_dropShadow_1_2125"/>
<feColorMatrix in="SourceAlpha" type="matrix" values="0 0 0 0 0 0 0 0 0 0 0 0 0 0 0 0 0 0 127 0" result="hardAlpha"/>
<feOffset/>
<feGaussianBlur stdDeviation="30"/>
<feComposite in2="hardAlpha" operator="out"/>
<feColorMatrix type="matrix" values="0 0 0 0 0.658824 0 0 0 0 0.333333 0 0 0 0 0.968627 0 0 0 0.4 0"/>
<feBlend mode="normal" in2="effect1_dropShadow_1_2125" result="effect2_dropShadow_1_2125"/>
<feColorMatrix in="SourceAlpha" type="matrix" values="0 0 0 0 0 0 0 0 0 0 0 0 0 0 0 0 0 0 127 0" result="hardAlpha"/>
<feOffset dy="10"/>
<feGaussianBlur stdDeviation="20"/>
<feComposite in2="hardAlpha" operator="out"/>
<feColorMatrix type="matrix" values="0 0 0 0 0.658824 0 0 0 0 0.333333 0 0 0 0 0.968627 0 0 0 0.3 0"/>
<feBlend mode="normal" in2="effect2_dropShadow_1_2125" result="effect3_dropShadow_1_2125"/>
<feBlend mode="normal" in="SourceGraphic" in2="effect3_dropShadow_1_2125" result="shape"/>
<feColorMatrix in="SourceAlpha" type="matrix" values="0 0 0 0 0 0 0 0 0 0 0 0 0 0 0 0 0 0 127 0" result="hardAlpha"/>
<feOffset dx="5" dy="5"/>
<feGaussianBlur stdDeviation="10"/>
<feComposite in2="hardAlpha" operator="arithmetic" k2="-1" k3="1"/>
<feColorMatrix type="matrix" values="0 0 0 0 1 0 0 0 0 1 0 0 0 0 1 0 0 0 0.3 0"/>
<feBlend mode="normal" in2="shape" result="effect4_innerShadow_1_2125"/>
<feColorMatrix in="SourceAlpha" type="matrix" values="0 0 0 0 0 0 0 0 0 0 0 0 0 0 0 0 0 0 127 0" result="hardAlpha"/>
<feOffset dx="-5" dy="-5"/>
<feGaussianBlur stdDeviation="10"/>
<feComposite in2="hardAlpha" operator="arithmetic" k2="-1" k3="1"/>
<feColorMatrix type="matrix" values="0 0 0 0 0 0 0 0 0 0 0 0 0 0 0 0 0 0 0.2 0"/>
<feBlend mode="normal" in2="effect4_innerShadow_1_2125" result="effect5_innerShadow_1_2125"/>
</filter>
<filter id="filter1_d_1_2125" x="92" y="126" width="24" height="24" filterUnits="userSpaceOnUse" color-interpolation-filters="sRGB">
<feFlood flood-opacity="0" result="BackgroundImageFix"/>
<feColorMatrix in="SourceAlpha" type="matrix" values="0 0 0 0 0 0 0 0 0 0 0 0 0 0 0 0 0 0 127 0" result="hardAlpha"/>
<feOffset/>
<feGaussianBlur stdDeviation="4"/>
<feComposite in2="hardAlpha" operator="out"/>
<feColorMatrix type="matrix" values="0 0 0 0 1 0 0 0 0 1 0 0 0 0 1 0 0 0 0.8 0"/>
<feBlend mode="normal" in2="BackgroundImageFix" result="effect1_dropShadow_1_2125"/>
<feBlend mode="normal" in="SourceGraphic" in2="effect1_dropShadow_1_2125" result="shape"/>
</filter>
<filter id="filter2_d_1_2125" x="177" y="132" width="18" height="18" filterUnits="userSpaceOnUse" color-interpolation-filters="sRGB">
<feFlood flood-opacity="0" result="BackgroundImageFix"/>
<feColorMatrix in="SourceAlpha" type="matrix" values="0 0 0 0 0 0 0 0 0 0 0 0 0 0 0 0 0 0 127 0" result="hardAlpha"/>
<feOffset/>
<feGaussianBlur stdDeviation="3"/>
<feComposite in2="hardAlpha" operator="out"/>
<feColorMatrix type="matrix" values="0 0 0 0 0.909804 0 0 0 0 0.47451 0 0 0 0 0.976471 0 0 0 0.8 0"/>
<feBlend mode="normal" in2="BackgroundImageFix" result="effect1_dropShadow_1_2125"/>
<feBlend mode="normal" in="SourceGraphic" in2="effect1_dropShadow_1_2125" result="shape"/>
</filter>
<filter id="filter3_d_1_2125" x="163" y="92" width="24" height="24" filterUnits="userSpaceOnUse" color-interpolation-filters="sRGB">
<feFlood flood-opacity="0" result="BackgroundImageFix"/>
<feColorMatrix in="SourceAlpha" type="matrix" values="0 0 0 0 0 0 0 0 0 0 0 0 0 0 0 0 0 0 127 0" result="hardAlpha"/>
<feOffset/>
<feGaussianBlur stdDeviation="4"/>
<feComposite in2="hardAlpha" operator="out"/>
<feColorMatrix type="matrix" values="0 0 0 0 0.92549 0 0 0 0 0.282353 0 0 0 0 0.6 0 0 0 0.8 0"/>
<feBlend mode="normal" in2="BackgroundImageFix" result="effect1_dropShadow_1_2125"/>
<feBlend mode="normal" in="SourceGraphic" in2="effect1_dropShadow_1_2125" result="shape"/>
</filter>
<filter id="filter4_d_1_2125" x="101" y="155" width="16" height="16" filterUnits="userSpaceOnUse" color-interpolation-filters="sRGB">
<feFlood flood-opacity="0" result="BackgroundImageFix"/>
<feColorMatrix in="SourceAlpha" type="matrix" values="0 0 0 0 0 0 0 0 0 0 0 0 0 0 0 0 0 0 127 0" result="hardAlpha"/>
<feOffset/>
<feGaussianBlur stdDeviation="3"/>
<feComposite in2="hardAlpha" operator="out"/>
<feColorMatrix type="matrix" values="0 0 0 0 1 0 0 0 0 1 0 0 0 0 1 0 0 0 0.8 0"/>
<feBlend mode="normal" in2="BackgroundImageFix" result="effect1_dropShadow_1_2125"/>
<feBlend mode="normal" in="SourceGraphic" in2="effect1_dropShadow_1_2125" result="shape"/>
</filter>
<filter id="filter5_d_1_2125" x="103" y="168" width="18" height="18" filterUnits="userSpaceOnUse" color-interpolation-filters="sRGB">
<feFlood flood-opacity="0" result="BackgroundImageFix"/>
<feColorMatrix in="SourceAlpha" type="matrix" values="0 0 0 0 0 0 0 0 0 0 0 0 0 0 0 0 0 0 127 0" result="hardAlpha"/>
<feOffset/>
<feGaussianBlur stdDeviation="3"/>
<feComposite in2="hardAlpha" operator="out"/>
<feColorMatrix type="matrix" values="0 0 0 0 0.658824 0 0 0 0 0.333333 0 0 0 0 0.968627 0 0 0 0.8 0"/>
<feBlend mode="normal" in2="BackgroundImageFix" result="effect1_dropShadow_1_2125"/>
<feBlend mode="normal" in="SourceGraphic" in2="effect1_dropShadow_1_2125" result="shape"/>
</filter>
<filter id="filter6_d_1_2125" x="134" y="177" width="16" height="16" filterUnits="userSpaceOnUse" color-interpolation-filters="sRGB">
<feFlood flood-opacity="0" result="BackgroundImageFix"/>
<feColorMatrix in="SourceAlpha" type="matrix" values="0 0 0 0 0 0 0 0 0 0 0 0 0 0 0 0 0 0 127 0" result="hardAlpha"/>
<feOffset/>
<feGaussianBlur stdDeviation="3"/>
<feComposite in2="hardAlpha" operator="out"/>
<feColorMatrix type="matrix" values="0 0 0 0 0.85098 0 0 0 0 0.27451 0 0 0 0 0.937255 0 0 0 0.8 0"/>
<feBlend mode="normal" in2="BackgroundImageFix" result="effect1_dropShadow_1_2125"/>
<feBlend mode="normal" in="SourceGraphic" in2="effect1_dropShadow_1_2125" result="shape"/>
</filter>
<linearGradient id="paint0_linear_1_2125" x1="108" y1="106" x2="188" y2="186" gradientUnits="userSpaceOnUse">
<stop stop-color="#E879F9"/>
<stop offset="0.3" stop-color="#A855F7"/>
<stop offset="0.6" stop-color="#D946EF"/>
<stop offset="1" stop-color="#A855F7"/>
</linearGradient>
<radialGradient id="paint1_radial_1_2125" cx="0" cy="0" r="1" gradientUnits="userSpaceOnUse" gradientTransform="translate(132 130) rotate(-90) scale(79.196)">
<stop stop-color="white" stop-opacity="0.4"/>
<stop offset="0.5" stop-opacity="0"/>
</radialGradient>
</defs>
</svg>
