<svg width="16" height="16" viewBox="0 0 16 16" fill="none" xmlns="http://www.w3.org/2000/svg">
<path d="M6.44729 2.75735C6.48402 2.37091 6.66351 2.01205 6.95069 1.75087C7.23787 1.4897 7.61211 1.34497 8.00029 1.34497C8.38847 1.34497 8.76271 1.4897 9.04989 1.75087C9.33707 2.01205 9.51656 2.37091 9.55329 2.75735C9.57537 3.00699 9.65727 3.24763 9.79205 3.45891C9.92683 3.67019 10.1105 3.84589 10.3276 3.97114C10.5447 4.09638 10.7887 4.16749 11.0391 4.17843C11.2895 4.18938 11.5388 4.13984 11.766 4.03402C12.1187 3.87387 12.5184 3.8507 12.8873 3.96901C13.2562 4.08732 13.5678 4.33865 13.7616 4.67409C13.9554 5.00953 14.0175 5.40507 13.9357 5.78373C13.854 6.1624 13.6342 6.4971 13.3193 6.72269C13.1142 6.86658 12.9468 7.05776 12.8312 7.28004C12.7157 7.50231 12.6553 7.74916 12.6553 7.99969C12.6553 8.25021 12.7157 8.49706 12.8312 8.71934C12.9468 8.94161 13.1142 9.13279 13.3193 9.27669C13.6342 9.50228 13.854 9.83697 13.9357 10.2156C14.0175 10.5943 13.9554 10.9898 13.7616 11.3253C13.5678 11.6607 13.2562 11.9121 12.8873 12.0304C12.5184 12.1487 12.1187 12.1255 11.766 11.9654C11.5388 11.8595 11.2895 11.81 11.0391 11.8209C10.7887 11.8319 10.5447 11.903 10.3276 12.0282C10.1105 12.1535 9.92683 12.3292 9.79205 12.5405C9.65727 12.7517 9.57537 12.9924 9.55329 13.242C9.51656 13.6285 9.33707 13.9873 9.04989 14.2485C8.76271 14.5097 8.38847 14.6544 8.00029 14.6544C7.61211 14.6544 7.23787 14.5097 6.95069 14.2485C6.66351 13.9873 6.48402 13.6285 6.44729 13.242C6.42525 12.9923 6.34336 12.7516 6.20854 12.5402C6.07371 12.3288 5.88994 12.1531 5.67278 12.0278C5.45562 11.9026 5.21147 11.8315 4.96101 11.8206C4.71055 11.8097 4.46116 11.8594 4.23396 11.9654C3.88122 12.1255 3.48151 12.1487 3.11263 12.0304C2.74374 11.9121 2.43207 11.6607 2.23828 11.3253C2.04449 10.9898 1.98244 10.5943 2.0642 10.2156C2.14596 9.83697 2.36569 9.50228 2.68063 9.27669C2.88571 9.13279 3.05311 8.94161 3.16868 8.71934C3.28426 8.49706 3.34459 8.25021 3.34459 7.99969C3.34459 7.74916 3.28426 7.50231 3.16868 7.28004C3.05311 7.05776 2.88571 6.86658 2.68063 6.72269C2.36614 6.49698 2.14679 6.16242 2.06523 5.78401C1.98366 5.4056 2.0457 5.01038 2.23928 4.67516C2.43287 4.33994 2.74417 4.08867 3.11269 3.97018C3.4812 3.85169 3.88061 3.87444 4.23329 4.03402C4.46046 4.13984 4.70979 4.18938 4.96016 4.17843C5.21053 4.16749 5.45458 4.09638 5.67165 3.97114C5.88872 3.84589 6.07242 3.67019 6.2072 3.45891C6.34198 3.24763 6.42388 3.00699 6.44596 2.75735" stroke="#717182" stroke-width="1.33333" stroke-linecap="round" stroke-linejoin="round"/>
<path d="M8 10C9.10457 10 10 9.10457 10 8C10 6.89543 9.10457 6 8 6C6.89543 6 6 6.89543 6 8C6 9.10457 6.89543 10 8 10Z" stroke="#717182" stroke-width="1.33333" stroke-linecap="round" stroke-linejoin="round"/>
</svg>
