<svg width="16" height="16" viewBox="0 0 16 16" fill="none" xmlns="http://www.w3.org/2000/svg">
<path d="M7.70796 2.17738C7.73673 2.12512 7.77901 2.08154 7.83037 2.05119C7.88173 2.02083 7.9403 2.00482 7.99996 2.00482C8.05962 2.00482 8.11818 2.02083 8.16955 2.05119C8.22091 2.08154 8.26318 2.12512 8.29196 2.17738L10.26 5.91338C10.3069 5.99989 10.3724 6.07494 10.4518 6.13313C10.5311 6.19132 10.6224 6.23122 10.719 6.24996C10.8156 6.26869 10.9152 6.26581 11.0106 6.2415C11.106 6.2172 11.1948 6.17208 11.2706 6.10938L14.122 3.66672C14.1767 3.6222 14.2441 3.5962 14.3146 3.59245C14.3851 3.58871 14.4549 3.60742 14.514 3.64588C14.5732 3.68435 14.6186 3.74059 14.6437 3.80651C14.6689 3.87243 14.6725 3.94463 14.654 4.01272L12.7646 10.8434C12.7261 10.9832 12.643 11.1066 12.528 11.1949C12.413 11.2832 12.2723 11.3316 12.1273 11.3327H3.87329C3.72818 11.3317 3.58736 11.2834 3.47222 11.1951C3.35707 11.1067 3.27389 10.9833 3.23529 10.8434L1.34662 4.01338C1.32812 3.9453 1.3317 3.8731 1.35685 3.80718C1.382 3.74126 1.42741 3.68502 1.48656 3.64655C1.5457 3.60808 1.61553 3.58937 1.68598 3.59312C1.75644 3.59686 1.82389 3.62287 1.87862 3.66738L4.72929 6.11005C4.80516 6.17275 4.89396 6.21787 4.98933 6.24217C5.0847 6.26647 5.18427 6.26936 5.28089 6.25062C5.37751 6.23189 5.46878 6.19199 5.54815 6.1338C5.62752 6.0756 5.69303 6.00056 5.73996 5.91405L7.70796 2.17738Z" stroke="#717182" stroke-width="1.33333" stroke-linecap="round" stroke-linejoin="round"/>
<path d="M3.33337 14H12.6667" stroke="#717182" stroke-width="1.33333" stroke-linecap="round" stroke-linejoin="round"/>
</svg>
